<svg width="1920" height="1080" viewBox="0 0 1920 1080" xmlns="http://www.w3.org/2000/svg"><rect width="1920" height="1080" fill="#029502"/><path d="M 0,1080 C 0,1080 0,180 0,180 C 7.184099174642363,156.24614307889289 14.368198349284725,132.4922861577858 71,152 C 127.63180165071527,171.5077138422142 233.71130577750347,234.2769984477497 273,221 C 312.28869422249653,207.7230015522503 284.7865785407014,118.39972005121544 324,120 C 363.2134214592986,121.60027994878456 469.14238005969116,214.12412134738855 499,224 C 528.8576199403088,233.87587865261145 482.64390122053396,161.10379455923027 516,150 C 549.356098779466,138.89620544076973 662.2820150581728,189.46070041569035 722,186 C 781.7179849418272,182.53929958430965 788.228038546775,125.05340377800822 795,114 C 801.771961453225,102.94659622199178 808.805830754727,138.32568447227672 863,161 C 917.194169245273,183.67431552772328 1018.5486384343164,193.6438583328848 1077,184 C 1135.4513615656836,174.3561416671152 1150.9996155080073,145.09888219618404 1178,146 C 1205.0003844919927,146.90111780381596 1243.4528995336539,177.96061288237908 1279,177 C 1314.5471004663461,176.03938711762092 1347.1887863573777,143.0586662742996 1394,145 C 1440.8112136426223,146.9413337257004 1501.7919550368354,183.8047220204225 1516,197 C 1530.2080449631646,210.1952779795775 1497.643393495281,199.72244564401046 1521,186 C 1544.356606504719,172.27755435598954 1623.6344709820396,155.30549540353564 1692,164 C 1760.3655290179604,172.69450459646436 1817.81872257656,207.05557274184696 1854,214 C 1890.18127742344,220.94442725815304 1905.09063871172,200.47221362907652 1920,180 C 1920,180 1920,1080 1920,1080 Z" fill="#3d1053" opacity="0.09999999999999999"/><path d="M 0,1080 C 0,1080 0,360 0,360 C 36.344101936580486,350.8603237319619 72.68820387316097,341.72064746392385 103,358 C 133.31179612683903,374.27935253607615 157.59128644393655,415.97773387626654 210,420 C 262.40871355606345,424.02226612373346 342.9466503510928,390.3684170310101 383,385 C 423.0533496489072,379.6315829689899 422.6221121516923,402.5485979996931 457,420 C 491.3778878483077,437.4514020003069 560.5649010421381,449.4371909702176 618,424 C 675.4350989578619,398.5628090297824 721.1182836797551,335.7026381194364 732,304 C 742.8817163202449,272.2973618805636 718.9619642388415,271.7522565520368 743,306 C 767.0380357611585,340.2477434479632 839.0338593648794,409.2883356724166 896,407 C 952.9661406351206,404.7116643275834 994.9025983016413,331.09440075829656 1019,313 C 1043.0974016983587,294.90559924170344 1049.355747428555,332.33406129439703 1083,348 C 1116.644252571445,363.66593870560297 1177.6744119841378,357.5693540641153 1216,364 C 1254.3255880158622,370.4306459358847 1269.9466046348941,389.38852244914153 1319,403 C 1368.0533953651059,416.61147755085847 1450.5391694762855,424.87655613931844 1503,399 C 1555.4608305237145,373.12344386068156 1577.8967174599647,313.1052529935847 1591,323 C 1604.1032825400353,332.8947470064153 1607.8739606838556,412.70243188634254 1642,424 C 1676.1260393161444,435.29756811365746 1740.6074398046126,378.085019461045 1792,356 C 1843.3925601953874,333.914980538955 1881.6962800976937,346.9574902694775 1920,360 C 1920,360 1920,1080 1920,1080 Z" fill="#3d1053" opacity="0.19999999999999998"/><path d="M 0,1080 C 0,1080 0,540 0,540 C -0.7361278815288088,526.0875194464156 -1.4722557630576176,512.1750388928313 52,510 C 105.47225576305762,507.82496110716875 213.15289517070164,517.3873638750906 261,521 C 308.84710482929836,524.6126361249094 296.8606750802512,522.2755056068063 325,538 C 353.1393249197488,553.7244943931937 421.4044045082936,587.5106136976842 477,581 C 532.5955954917064,574.4893863023158 575.5217068865743,527.6820396024569 589,533 C 602.4782931134257,538.3179603975431 586.5087679454094,595.7612278924879 626,594 C 665.4912320545906,592.2387721075121 760.4432213317883,531.2730488275915 810,511 C 859.5567786682117,490.72695117240846 863.7183467274372,511.1465767971458 902,541 C 940.2816532725628,570.8534232028542 1012.6833917584629,610.1406439838252 1059,601 C 1105.316608241537,591.8593560161748 1125.5480862387114,534.2908472675534 1139,531 C 1152.4519137612886,527.7091527324466 1159.124263286692,578.695966945961 1192,580 C 1224.875736713308,581.304033054039 1283.9548606145206,532.9252849486024 1329,513 C 1374.0451393854794,493.0747150513975 1405.056294255225,501.6028932596287 1442,511 C 1478.943705744775,520.3971067403713 1521.8199623645787,530.6631420128831 1581,525 C 1640.1800376354213,519.3368579871169 1715.6638562864598,497.74453868883916 1742,487 C 1768.3361437135402,476.25546131116084 1745.524612489583,476.3587032317602 1767,487 C 1788.475387510417,497.6412967682398 1854.2376937552085,518.8206483841199 1920,540 C 1920,540 1920,1080 1920,1080 Z" fill="#3d1053" opacity="0.3"/><path d="M 0,1080 C 0,1080 0,720 0,720 C 17.305161196936666,726.457312474904 34.61032239387333,732.914624949808 82,745 C 129.38967760612667,757.085375050192 206.86387162144337,774.7988126756724 249,780 C 291.13612837855663,785.2011873243276 297.934191120353,777.8901243475029 330,750 C 362.065808879647,722.1098756524971 419.39936389714495,673.640689934316 465,678 C 510.60063610285505,682.359310065684 544.4683532910674,739.5471159152324 568,756 C 591.5316467089326,772.4528840847676 604.7272229385852,748.1708464047541 637,716 C 669.2727770614148,683.8291535952459 720.6227549545915,643.7694984657509 783,660 C 845.3772450454085,676.2305015342491 918.7817572430483,748.7511597322423 960,769 C 1001.2182427569517,789.2488402677577 1010.2502160732145,757.2258626052801 1040,745 C 1069.7497839267855,732.7741373947199 1120.2173784640936,740.3453898466375 1160,745 C 1199.7826215359064,749.6546101533625 1228.8802700704105,751.3925780081698 1253,757 C 1277.1197299295895,762.6074219918302 1296.2615412542646,772.0842981206828 1326,757 C 1355.7384587457354,741.9157018793172 1396.0735649125315,702.2702295090988 1439,705 C 1481.9264350874685,707.7297704909012 1527.44419909561,752.834783842922 1581,762 C 1634.55580090439,771.165216157078 1696.1496387050279,744.3906351192132 1736,748 C 1775.8503612949721,751.6093648807868 1793.9572460842778,785.6026756802247 1821,786 C 1848.0427539157222,786.3973243197753 1884.021376957861,753.1986621598876 1920,720 C 1920,720 1920,1080 1920,1080 Z" fill="#3d1053" opacity="0.39999999999999997"/><path d="M 0,1080 C 0,1080 0,900 0,900 C 59.608262463531716,858.2890105140762 119.21652492706343,816.5780210281524 136,835 C 152.78347507293657,853.4219789718476 126.74216275527795,931.9769264014668 163,955 C 199.25783724472205,978.0230735985332 297.8148240518249,945.514273365981 335,909 C 372.1851759481751,872.485726634019 347.99854103742246,831.9659801346095 394,854 C 440.00145896257754,876.0340198653905 556.1910117984853,960.6218060955813 605,962 C 653.8089882015147,963.3781939044187 635.2374117686363,881.5467954830655 651,862 C 666.7625882313637,842.4532045169345 716.8593411269694,885.1910119721568 751,903 C 785.1406588730306,920.8089880278432 803.3252237234867,913.6891566283078 857,886 C 910.6747762765133,858.3108433716922 999.839763979084,810.0523615146118 1055,832 C 1110.160236020916,853.9476384853882 1131.3157203601775,946.1013973132447 1148,951 C 1164.6842796398225,955.8986026867553 1176.8973545802064,873.5420492324091 1208,857 C 1239.1026454197936,840.4579507675909 1289.0948613189971,889.7304057571192 1346,886 C 1402.9051386810029,882.2695942428808 1466.723200143805,825.5363277391144 1494,841 C 1521.276799856195,856.4636722608856 1512.012338105784,944.1242832864227 1553,967 C 1593.987661894216,989.8757167135773 1685.2274474330582,947.9665391151938 1720,940 C 1754.7725525669418,932.0334608848062 1733.0778721619834,958.0095602528016 1757,957 C 1780.9221278380166,955.9904397471984 1850.4610639190082,927.9952198735991 1920,900 C 1920,900 1920,1080 1920,1080 Z" fill="#3d1053" opacity="0.49999999999999994"/></svg>